<svg width="1517" height="1380" xmlns="http://www.w3.org/2000/svg" xmlns:xlink="http://www.w3.org/1999/xlink" overflow="hidden"><defs><clipPath id="clip0"><rect x="980" y="618" width="1517" height="1380"/></clipPath></defs><g clip-path="url(#clip0)" transform="translate(-980 -618)"><path d="M986.5 704.668C986.5 660.393 1022.39 624.5 1066.67 624.5L1387.33 624.5C1431.61 624.5 1467.5 660.393 1467.5 704.668L1467.5 1029.33C1467.5 1073.61 1431.61 1109.5 1387.33 1109.5L1066.67 1109.5C1022.39 1109.5 986.5 1073.61 986.5 1029.33Z" stroke="#2F528F" stroke-width="4.58333" stroke-linecap="butt" stroke-linejoin="miter" stroke-miterlimit="8" stroke-opacity="1" fill="#4472C4" fill-rule="evenodd" fill-opacity="1"/><text fill="#FFFFFF" fill-opacity="1" font-family="Calibri,Calibri_MSFontService,sans-serif" font-style="normal" font-variant="normal" font-weight="400" font-stretch="normal" font-size="83" text-anchor="start" direction="ltr" writing-mode="lr-tb" unicode-bidi="normal" text-decoration="none" transform="matrix(1 0 0 1 1043.84 894)">PC<tspan fill="#FFFFFF" fill-opacity="1" font-family="Calibri,Calibri_MSFontService,sans-serif" font-style="normal" font-variant="normal" font-weight="400" font-stretch="normal" font-size="83" text-anchor="start" direction="ltr" writing-mode="lr-tb" unicode-bidi="normal" text-decoration="none" x="86.5104" y="0">(Source)</tspan></text><path d="M2011.5 704.668C2011.5 660.393 2047.39 624.5 2091.67 624.5L2412.33 624.5C2456.61 624.5 2492.5 660.393 2492.5 704.668L2492.5 1029.33C2492.5 1073.61 2456.61 1109.5 2412.33 1109.5L2091.67 1109.5C2047.39 1109.5 2011.5 1073.61 2011.5 1029.33Z" stroke="#2F528F" stroke-width="4.58333" stroke-linecap="butt" stroke-linejoin="miter" stroke-miterlimit="8" stroke-opacity="1" fill="#4472C4" fill-rule="evenodd" fill-opacity="1"/><text fill="#FFFFFF" fill-opacity="1" font-family="Calibri,Calibri_MSFontService,sans-serif" font-style="normal" font-variant="normal" font-weight="400" font-stretch="normal" font-size="83" text-anchor="start" direction="ltr" writing-mode="lr-tb" unicode-bidi="normal" text-decoration="none" transform="matrix(1 0 0 1 2105.59 894)">LED<tspan fill="#FFFFFF" fill-opacity="1" font-family="Calibri,Calibri_MSFontService,sans-serif" font-style="normal" font-variant="normal" font-weight="400" font-stretch="normal" font-size="83" text-anchor="start" direction="ltr" writing-mode="lr-tb" unicode-bidi="normal" text-decoration="none" x="144.948" y="0">light</tspan></text><path d="M2011.5 1586.67C2011.5 1542.39 2047.39 1506.5 2091.67 1506.5L2412.33 1506.5C2456.61 1506.5 2492.5 1542.39 2492.5 1586.67L2492.5 1911.33C2492.5 1955.61 2456.61 1991.5 2412.33 1991.5L2091.67 1991.5C2047.39 1991.5 2011.5 1955.61 2011.5 1911.33Z" stroke="#2F528F" stroke-width="4.58333" stroke-linecap="butt" stroke-linejoin="miter" stroke-miterlimit="8" stroke-opacity="1" fill="#4472C4" fill-rule="evenodd" fill-opacity="1"/><text fill="#FFFFFF" fill-opacity="1" font-family="Calibri,Calibri_MSFontService,sans-serif" font-style="normal" font-variant="normal" font-weight="400" font-stretch="normal" font-size="83" text-anchor="start" direction="ltr" writing-mode="lr-tb" unicode-bidi="normal" text-decoration="none" transform="matrix(1 0 0 1 2186.28 1776)">LDR</text><path d="M986.5 1586.67C986.5 1542.39 1022.39 1506.5 1066.67 1506.5L1387.33 1506.5C1431.61 1506.5 1467.5 1542.39 1467.5 1586.67L1467.5 1911.33C1467.5 1955.61 1431.61 1991.5 1387.33 1991.5L1066.67 1991.5C1022.39 1991.5 986.5 1955.61 986.5 1911.33Z" stroke="#2F528F" stroke-width="4.58333" stroke-linecap="butt" stroke-linejoin="miter" stroke-miterlimit="8" stroke-opacity="1" fill="#4472C4" fill-rule="evenodd" fill-opacity="1"/><text fill="#FFFFFF" fill-opacity="1" font-family="Calibri,Calibri_MSFontService,sans-serif" font-style="normal" font-variant="normal" font-weight="400" font-stretch="normal" font-size="83" text-anchor="start" direction="ltr" writing-mode="lr-tb" unicode-bidi="normal" text-decoration="none" transform="matrix(1 0 0 1 1088.08 1776)">IIR<tspan fill="#FFFFFF" fill-opacity="1" font-family="Calibri,Calibri_MSFontService,sans-serif" font-style="normal" font-variant="normal" font-weight="400" font-stretch="normal" font-size="83" text-anchor="start" direction="ltr" writing-mode="lr-tb" unicode-bidi="normal" text-decoration="none" x="104.844" y="0">Filter</tspan></text><path d="M1467.5 856.042 1954.15 856.042 1954.15 878.959 1467.5 878.958ZM1942.69 833.125 2011.44 867.5 1942.69 901.875Z" fill="#4472C4" fill-rule="nonzero" fill-opacity="1"/><path d="M2263.96 1109.5 2263.96 1449.46 2241.04 1449.46 2241.04 1109.5ZM2286.88 1438 2252.5 1506.75 2218.13 1438Z" fill="#4472C4" fill-rule="nonzero" fill-opacity="1"/><path d="M7.60238e-06-11.4583 486.647-11.458 486.647 11.4587-7.60238e-06 11.4583ZM475.188-34.3747 543.938 0.000360892 475.188 34.3753Z" fill="#4472C4" fill-rule="nonzero" fill-opacity="1" transform="matrix(-1 0 0 1 2011.44 1749.5)"/><path d="M1216.04 1506.75 1216.04 1166.79 1238.96 1166.79 1238.96 1506.75ZM1193.13 1178.25 1227.5 1109.5 1261.88 1178.25Z" fill="#4472C4" fill-rule="nonzero" fill-opacity="1"/></g></svg>